<?xml version="1.0" encoding="UTF-8" standalone="no"?>
<!DOCTYPE svg PUBLIC "-//W3C//DTD SVG 1.1//EN" "http://www.w3.org/Graphics/SVG/1.1/DTD/svg11.dtd">
<svg version="1.1" xmlns="http://www.w3.org/2000/svg" xmlns:xlink="http://www.w3.org/1999/xlink" preserveAspectRatio="xMidYMid meet" viewBox="63.73664395278496 218.52516897131582 96.36013024076345 98.62365591397875" width="92.36" height="94.62"><defs><path d="M64.74 219.53L157.1 219.53L157.1 314.15L64.74 314.15L64.74 219.53Z" id="b2aZE2Iaf3"></path><path d="M137.09 266.81L124.76 279.45L127.66 297.28L112.43 288.86L97.18 297.28L100.1 279.45L87.77 266.81L104.81 264.2L112.43 247.97L120.05 264.2L137.09 266.81Z" id="bFZsUP8BP"></path><path d="M129.79 261.34L118.16 273.27L120.9 290.1L106.53 282.14L92.15 290.1L94.89 273.27L83.26 261.34L99.34 258.88L106.53 243.57L113.72 258.88L129.79 261.34Z" id="fEWoQ5wEj"></path><path d="M130.72 242.64L130.72 251.95L121.42 251.95L121.42 242.64L130.72 242.64Z" id="cBGGCDI9x"></path><path d="M137.23 234.27L137.23 240.78L130.72 240.78L130.72 234.27L137.23 234.27Z" id="c5VYaftQfa"></path><path d="M140.96 248.23L140.96 253.81L135.37 253.81L135.37 248.23L140.96 248.23Z" id="b2P1EMXjk"></path><path d="M146.54 237.06L146.54 243.57L140.03 243.57L140.03 237.06L146.54 237.06Z" id="c3IvjKAGou"></path></defs><g><g></g><g><use xlink:href="#bFZsUP8BP" opacity="1" fill="#ffe29b" fill-opacity="0.83"></use><g><use xlink:href="#bFZsUP8BP" opacity="1" fill-opacity="0" stroke="#000000" stroke-width="1" stroke-opacity="0"></use></g></g><g><use xlink:href="#fEWoQ5wEj" opacity="1" fill="#000000" fill-opacity="0"></use><g><use xlink:href="#fEWoQ5wEj" opacity="1" fill-opacity="0" stroke="#ffffff" stroke-width="3" stroke-opacity="1"></use></g></g><g><use xlink:href="#cBGGCDI9x" opacity="1" fill="#ffffff" fill-opacity="1"></use><g><use xlink:href="#cBGGCDI9x" opacity="1" fill-opacity="0" stroke="#000000" stroke-width="1" stroke-opacity="0"></use></g></g><g><use xlink:href="#c5VYaftQfa" opacity="1" fill="#ffe29b" fill-opacity="1"></use><g><use xlink:href="#c5VYaftQfa" opacity="1" fill-opacity="0" stroke="#000000" stroke-width="1" stroke-opacity="0"></use></g></g><g><use xlink:href="#b2P1EMXjk" opacity="1" fill="#ffe29b" fill-opacity="1"></use><g><use xlink:href="#b2P1EMXjk" opacity="1" fill-opacity="0" stroke="#000000" stroke-width="1" stroke-opacity="0"></use></g></g><g><use xlink:href="#c3IvjKAGou" opacity="1" fill="#ffffff" fill-opacity="1"></use><g><use xlink:href="#c3IvjKAGou" opacity="1" fill-opacity="0" stroke="#000000" stroke-width="1" stroke-opacity="0"></use></g></g></g></svg>