<?xml version="1.0" encoding="utf-8"?>
<!-- Generator: Adobe Illustrator 17.0.0, SVG Export Plug-In . SVG Version: 6.00 Build 0)  -->
<!DOCTYPE svg PUBLIC "-//W3C//DTD SVG 1.1//EN" "http://www.w3.org/Graphics/SVG/1.1/DTD/svg11.dtd">
<svg version="1.1" id="Layer_1" xmlns="http://www.w3.org/2000/svg" xmlns:xlink="http://www.w3.org/1999/xlink" x="0px" y="0px"
	 width="115px" height="76px" viewBox="0 0 115 76" enable-background="new 0 0 115 76" xml:space="preserve">
<g>
	<g>
		<circle fill="#0E3E6F" cx="57.5" cy="28.312" r="27.5"/>
		<g>
			<path fill="#FFFFFF" d="M77,22.192c-0.203-0.068-5.024-1.649-12.698-2.317c-0.085-0.156-0.171-0.308-0.255-0.457
				c-2.993-5.277-5.81-7.739-5.929-7.84c-0.186-0.16-0.415-0.236-0.643-0.231c-0.229-0.005-0.46,0.072-0.646,0.234
				c-0.118,0.103-2.924,2.579-5.892,7.869c-1.223,2.181-2.232,4.411-3.064,6.631c-2.171-1.236-4.166-2.192-5.978-2.862
				c1.411-0.323,3.236-0.685,5.396-0.991c0.523-0.075,0.885-0.558,0.812-1.081c-0.075-0.522-0.555-0.885-1.08-0.812
				c-5.544,0.787-8.885,1.903-9.025,1.95c-0.413,0.139-0.679,0.54-0.647,0.975c0.031,0.434,0.354,0.792,0.782,0.87
				c2.688,0.489,5.843,1.905,9.092,3.785c-2.022,6.065-2.781,11.927-3.029,16.352c-0.022,0.392,0.198,0.757,0.555,0.922
				c0.128,0.059,0.263,0.087,0.399,0.087c0.242,0,0.48-0.091,0.662-0.266c0.039-0.037,3.975-3.811,9.293-8.126
				c0.41-0.332,0.473-0.934,0.14-1.344c-0.332-0.41-0.934-0.473-1.344-0.14c-3.221,2.613-5.944,5.034-7.62,6.566
				c0.46-5.04,1.433-9.374,2.633-13.038c9.969,6.17,20.24,15.891,20.382,16.027c0.182,0.173,0.419,0.263,0.659,0.263
				c0.137,0,0.273-0.029,0.402-0.089c0.356-0.165,0.575-0.532,0.551-0.924c-0.601-9.931-3.134-17.34-5.558-22.31
				c3.212,0.335,5.862,0.825,7.761,1.252c-1.142,0.429-2.356,0.972-3.636,1.626c-0.471,0.24-0.656,0.815-0.417,1.285
				c0.169,0.331,0.505,0.522,0.852,0.522c0.146,0,0.295-0.033,0.433-0.104c2.489-1.27,4.686-2.091,6.531-2.435
				c0.428-0.081,0.748-0.44,0.778-0.874C77.681,22.73,77.413,22.329,77,22.192z M68.81,41.912c-2.025-1.83-5.573-4.944-9.688-8.137
				c-3.469-2.692-6.661-4.928-9.565-6.699c1.025-2.772,2.165-5.112,3.27-7.038c1.925-3.357,3.74-5.461,4.651-6.415
				C59.68,15.91,67.171,24.844,68.81,41.912z"/>
			<path fill="#FFFFFF" d="M64.281,20.833L64.281,20.833z"/>
		</g>
	</g>
	<g>
		<path fill="#0E3E6F" d="M11.893,71.905c0,0.381-0.048,0.724-0.145,1.028s-0.224,0.573-0.382,0.806s-0.344,0.43-0.557,0.594
			c-0.213,0.163-0.433,0.297-0.661,0.401c-0.228,0.104-0.459,0.181-0.694,0.23s-0.457,0.074-0.665,0.074h-7.45v-1.931h7.449
			c0.371,0,0.66-0.109,0.865-0.327s0.308-0.51,0.308-0.876c0-0.178-0.027-0.342-0.082-0.49c-0.055-0.148-0.132-0.277-0.234-0.387
			s-0.225-0.193-0.371-0.253s-0.308-0.089-0.487-0.089h-4.44c-0.312,0-0.649-0.056-1.01-0.167c-0.362-0.111-0.697-0.291-1.006-0.538
			c-0.31-0.247-0.567-0.572-0.772-0.973c-0.206-0.399-0.309-0.89-0.309-1.468s0.103-1.068,0.308-1.466S2.021,65.35,2.33,65.1
			c0.31-0.25,0.645-0.43,1.006-0.542c0.361-0.111,0.698-0.167,1.01-0.167h6.574v1.931H4.347c-0.367,0-0.652,0.111-0.857,0.334
			s-0.308,0.518-0.308,0.884c0,0.371,0.103,0.665,0.308,0.88c0.205,0.216,0.492,0.323,0.857,0.323h4.441h0.015
			c0.208,0.005,0.428,0.034,0.661,0.085c0.233,0.052,0.464,0.132,0.694,0.242c0.23,0.109,0.449,0.246,0.657,0.412
			c0.208,0.166,0.392,0.365,0.553,0.598s0.288,0.5,0.382,0.802C11.845,71.182,11.893,71.524,11.893,71.905z"/>
		<path fill="#0E3E6F" d="M29.094,66.32h-4.255v8.719h-1.931V66.32h-4.263v-1.931h10.449C29.094,64.389,29.094,66.32,29.094,66.32z"
			/>
		<path fill="#0E3E6F" d="M46.674,75.039h-1.931v-2.614h-6.788v2.614h-1.931v-5.325c0-0.777,0.134-1.493,0.401-2.146
			c0.267-0.654,0.638-1.215,1.114-1.686c0.475-0.47,1.037-0.837,1.686-1.099s1.357-0.393,2.124-0.393h4.352
			c0.134,0,0.26,0.025,0.379,0.074c0.119,0.049,0.223,0.119,0.312,0.208s0.159,0.193,0.208,0.312
			c0.049,0.119,0.074,0.245,0.074,0.379C46.674,65.362,46.674,75.039,46.674,75.039z M37.955,70.494h6.788V66.32h-3.394
			c-0.06,0-0.185,0.009-0.375,0.026c-0.191,0.017-0.411,0.06-0.661,0.13c-0.25,0.069-0.514,0.176-0.791,0.319
			s-0.532,0.342-0.765,0.594c-0.233,0.253-0.424,0.568-0.575,0.947s-0.227,0.838-0.227,1.378V70.494z"/>
		<path fill="#0E3E6F" d="M65.643,67.969c0,0.441-0.055,0.834-0.163,1.181c-0.109,0.347-0.256,0.652-0.442,0.917
			c-0.185,0.265-0.4,0.492-0.643,0.68c-0.242,0.188-0.496,0.343-0.761,0.464c-0.265,0.122-0.532,0.209-0.802,0.264
			c-0.27,0.054-0.524,0.082-0.761,0.082l4.033,3.483h-2.986l-4.025-3.483h-1.389v-1.931h4.367c0.242-0.02,0.464-0.071,0.665-0.152
			c0.2-0.082,0.373-0.192,0.52-0.33c0.146-0.139,0.259-0.306,0.338-0.501c0.079-0.196,0.119-0.419,0.119-0.672v-1.218
			c0-0.109-0.014-0.192-0.041-0.249s-0.062-0.099-0.104-0.126s-0.087-0.043-0.134-0.048s-0.091-0.008-0.13-0.008h-6.372v8.719H55
			v-9.677c0-0.134,0.025-0.26,0.074-0.379c0.049-0.119,0.117-0.223,0.204-0.312c0.087-0.089,0.189-0.159,0.308-0.208
			s0.247-0.074,0.387-0.074h7.33c0.43,0,0.794,0.078,1.092,0.234c0.297,0.156,0.538,0.352,0.724,0.587
			c0.185,0.235,0.319,0.489,0.401,0.761s0.122,0.527,0.122,0.765v1.232h0.001V67.969z"/>
		<path fill="#0E3E6F" d="M84.842,70.732c0,0.649-0.111,1.245-0.334,1.79c-0.223,0.544-0.532,1.015-0.928,1.411
			s-0.865,0.704-1.407,0.925s-1.133,0.33-1.771,0.33h-2.614c-0.638,0-1.23-0.111-1.775-0.33c-0.544-0.22-1.015-0.529-1.411-0.925
			s-0.707-0.866-0.932-1.411c-0.225-0.544-0.338-1.141-0.338-1.79v-2.035c0-0.643,0.113-1.239,0.338-1.786
			c0.225-0.547,0.535-1.017,0.932-1.411c0.396-0.393,0.866-0.702,1.411-0.925s1.136-0.334,1.775-0.334h2.614
			c0.638,0,1.229,0.111,1.771,0.334s1.011,0.531,1.407,0.925c0.396,0.393,0.706,0.864,0.928,1.411
			c0.223,0.547,0.334,1.142,0.334,1.786V70.732z M82.911,68.697c0-0.381-0.06-0.726-0.182-1.036
			c-0.122-0.31-0.292-0.574-0.512-0.794s-0.485-0.391-0.794-0.512c-0.31-0.122-0.65-0.182-1.021-0.182h-2.614
			c-0.376,0-0.719,0.06-1.028,0.182c-0.31,0.122-0.575,0.292-0.798,0.512s-0.395,0.485-0.516,0.794
			c-0.122,0.31-0.182,0.655-0.182,1.036v2.035c0,0.381,0.06,0.726,0.182,1.036c0.122,0.31,0.293,0.575,0.516,0.794
			c0.223,0.22,0.489,0.391,0.798,0.512c0.31,0.122,0.652,0.182,1.028,0.182h2.599c0.376,0,0.719-0.06,1.028-0.182
			c0.31-0.122,0.575-0.292,0.798-0.512s0.395-0.485,0.516-0.794c0.122-0.31,0.182-0.655,0.182-1.036L82.911,68.697L82.911,68.697z"
			/>
		<path fill="#0E3E6F" d="M94.781,75.039H92.85V64.39h1.931V75.039z"/>
		<path fill="#0E3E6F" d="M113.75,70.583c0,0.649-0.113,1.245-0.338,1.79s-0.536,1.014-0.932,1.407
			c-0.396,0.393-0.866,0.702-1.411,0.925c-0.544,0.223-1.136,0.334-1.775,0.334h-5.213c-0.139,0-0.267-0.025-0.387-0.074
			c-0.119-0.049-0.222-0.117-0.308-0.204c-0.087-0.087-0.155-0.189-0.204-0.308c-0.049-0.119-0.074-0.247-0.074-0.387v-8.704
			c0-0.134,0.025-0.26,0.074-0.379c0.049-0.119,0.117-0.223,0.204-0.312c0.087-0.089,0.189-0.159,0.308-0.208
			c0.119-0.049,0.247-0.074,0.387-0.074h5.213c0.638,0,1.23,0.111,1.775,0.334s1.015,0.531,1.411,0.925
			c0.396,0.393,0.706,0.864,0.932,1.411c0.225,0.547,0.338,1.142,0.338,1.786V70.583z M111.819,68.845
			c0-0.376-0.06-0.72-0.182-1.033c-0.122-0.312-0.293-0.578-0.516-0.798c-0.223-0.22-0.489-0.391-0.798-0.512
			c-0.31-0.122-0.652-0.182-1.028-0.182h-4.255v6.788h4.255c0.376,0,0.719-0.06,1.028-0.182c0.31-0.122,0.575-0.292,0.798-0.512
			s0.395-0.485,0.516-0.794c0.122-0.31,0.182-0.655,0.182-1.036V68.845z"/>
	</g>
</g>
</svg>
