<?xml version="1.0" encoding="UTF-8" standalone="no"?>
<!DOCTYPE svg PUBLIC "-//W3C//DTD SVG 1.1//EN" "http://www.w3.org/Graphics/SVG/1.1/DTD/svg11.dtd">
<svg version="1.1" xmlns="http://www.w3.org/2000/svg" xmlns:xlink="http://www.w3.org/1999/xlink" preserveAspectRatio="xMidYMid meet" viewBox="1.2342668961359884 -0.7639369975816979 72.91656565656565 68.72848484848488" width="68.42" height="64.73"><defs><path d="M40.68 29.41L58.99 32.21L45.74 45.79L48.86 64.96L32.49 55.91L16.11 64.96L19.24 45.79L5.99 32.21L24.3 29.41L32.49 11.96L40.68 29.41Z" id="djmtdBgVZ"></path><path d="M35.46 25.2L52.73 27.84L40.23 40.65L43.18 58.74L27.73 50.2L12.28 58.74L15.24 40.65L2.73 27.84L20.01 25.2L27.73 8.74L35.46 25.2Z" id="c2HoKESc33"></path><path d="M44.15 9.24L54.15 9.24L54.15 19.24L44.15 19.24L44.15 9.24Z" id="anYVMTmGt"></path><path d="M54.15 0.24L61.15 0.24L61.15 7.24L54.15 7.24L54.15 0.24Z" id="a2YlrwLs8g"></path><path d="M59.15 15.24L65.15 15.24L65.15 21.24L59.15 21.24L59.15 15.24Z" id="b4Hf1Icwup"></path><path d="M64.15 3.24L71.15 3.24L71.15 10.24L64.15 10.24L64.15 3.24Z" id="gCSIBz7Pq"></path></defs><g><g><use xlink:href="#djmtdBgVZ" opacity="1" fill="#ffde88" fill-opacity="1"></use></g><g><g><use xlink:href="#c2HoKESc33" opacity="1" fill-opacity="0" stroke="#ffba00" stroke-width="3" stroke-opacity="1"></use></g></g><g><use xlink:href="#anYVMTmGt" opacity="1" fill="#ffb100" fill-opacity="1"></use></g><g><use xlink:href="#a2YlrwLs8g" opacity="1" fill="#ffde88" fill-opacity="1"></use></g><g><use xlink:href="#b4Hf1Icwup" opacity="1" fill="#ffde88" fill-opacity="1"></use></g><g><use xlink:href="#gCSIBz7Pq" opacity="1" fill="#ffb100" fill-opacity="1"></use></g></g></svg>