<?xml version="1.0" encoding="utf-8"?>
<!-- Generator: Adobe Illustrator 17.0.0, SVG Export Plug-In . SVG Version: 6.00 Build 0)  -->
<!DOCTYPE svg PUBLIC "-//W3C//DTD SVG 1.1//EN" "http://www.w3.org/Graphics/SVG/1.1/DTD/svg11.dtd">
<svg version="1.1" id="Layer_1" xmlns="http://www.w3.org/2000/svg" xmlns:xlink="http://www.w3.org/1999/xlink" x="0px" y="0px"
	 width="56px" height="56px" viewBox="0 0 56 56" enable-background="new 0 0 56 56" xml:space="preserve">
<g>
	<circle fill="#FFFFFF" cx="28" cy="28" r="27.5"/>
	<g>
		<path fill="#0E3E6F" d="M47.5,21.88c-0.203-0.068-5.024-1.649-12.698-2.317c-0.085-0.156-0.171-0.308-0.255-0.457
			c-2.993-5.277-5.81-7.739-5.929-7.84c-0.186-0.16-0.415-0.236-0.643-0.231c-0.229-0.005-0.46,0.072-0.646,0.234
			c-0.118,0.103-2.924,2.579-5.892,7.869c-1.223,2.181-2.232,4.411-3.064,6.631c-2.171-1.236-4.166-2.192-5.978-2.862
			c1.411-0.323,3.236-0.685,5.396-0.991c0.523-0.075,0.885-0.558,0.812-1.081c-0.075-0.522-0.555-0.885-1.08-0.812
			c-5.544,0.787-8.885,1.903-9.025,1.95c-0.413,0.139-0.679,0.54-0.647,0.975c0.031,0.434,0.354,0.792,0.782,0.87
			c2.688,0.489,5.843,1.905,9.092,3.785c-2.022,6.065-2.781,11.927-3.029,16.352c-0.022,0.392,0.198,0.757,0.555,0.922
			c0.128,0.059,0.263,0.087,0.399,0.087c0.242,0,0.48-0.091,0.662-0.266c0.039-0.037,3.975-3.811,9.293-8.126
			c0.41-0.332,0.473-0.934,0.14-1.344c-0.332-0.41-0.934-0.473-1.344-0.14c-3.221,2.613-5.944,5.034-7.62,6.566
			c0.46-5.04,1.433-9.374,2.633-13.038c9.969,6.17,20.24,15.891,20.382,16.027c0.182,0.173,0.419,0.263,0.659,0.263
			c0.137,0,0.273-0.029,0.402-0.089c0.356-0.165,0.575-0.532,0.551-0.924c-0.601-9.931-3.134-17.34-5.558-22.31
			c3.212,0.335,5.862,0.825,7.761,1.252c-1.142,0.429-2.356,0.972-3.636,1.626c-0.471,0.24-0.656,0.815-0.417,1.285
			c0.169,0.331,0.505,0.522,0.852,0.522c0.146,0,0.295-0.033,0.433-0.104c2.489-1.27,4.686-2.091,6.531-2.435
			c0.428-0.081,0.748-0.44,0.778-0.874C48.181,22.418,47.913,22.017,47.5,21.88z M39.31,41.6c-2.025-1.83-5.573-4.944-9.688-8.137
			c-3.469-2.692-6.661-4.928-9.565-6.699c1.025-2.772,2.165-5.112,3.27-7.038c1.925-3.357,3.74-5.461,4.651-6.415
			C30.18,15.598,37.671,24.532,39.31,41.6z"/>
		<path fill="#0E3E6F" d="M34.781,20.521L34.781,20.521z"/>
	</g>
</g>
</svg>
