<?xml version="1.0" encoding="utf-8"?>
<!-- Generator: Adobe Illustrator 24.0.0, SVG Export Plug-In . SVG Version: 6.00 Build 0)  -->
<svg version="1.1" id="Layer_1" xmlns="http://www.w3.org/2000/svg" xmlns:xlink="http://www.w3.org/1999/xlink" x="0px" y="0px"
	 viewBox="0 0 1638.68 784.7" style="enable-background:new 0 0 1638.68 784.7;" xml:space="preserve">
<g>
	<g>
		<path d="M155.02,736.88c0,5.55-0.7,10.55-2.11,14.98s-3.26,8.35-5.57,11.74c-2.31,3.39-5.01,6.27-8.11,8.65
			c-3.1,2.38-6.31,4.33-9.63,5.84c-3.32,1.51-6.69,2.63-10.11,3.35c-3.43,0.72-6.65,1.08-9.68,1.08H1.3v-28.13h108.5
			c5.41,0,9.61-1.59,12.6-4.76c2.99-3.17,4.49-7.43,4.49-12.76c0-2.6-0.4-4.98-1.19-7.14c-0.8-2.16-1.93-4.04-3.41-5.63
			c-1.48-1.59-3.28-2.81-5.41-3.68c-2.13-0.87-4.49-1.3-7.09-1.3H45.11c-4.54,0-9.45-0.81-14.71-2.43
			c-5.27-1.62-10.15-4.24-14.66-7.84c-4.51-3.6-8.26-8.33-11.25-14.17C1.5,688.85,0,681.71,0,673.28s1.5-15.56,4.49-21.36
			c2.99-5.8,6.74-10.53,11.25-14.17c4.51-3.64,9.39-6.27,14.66-7.9c5.26-1.62,10.17-2.43,14.71-2.43h95.74v28.13H45.11
			c-5.34,0-9.5,1.62-12.49,4.87c-2.99,3.25-4.49,7.54-4.49,12.87c0,5.41,1.5,9.68,4.49,12.82c2.99,3.14,7.16,4.71,12.49,4.71h64.69
			h0.22c3.03,0.07,6.24,0.49,9.63,1.24c3.39,0.76,6.76,1.93,10.11,3.52c3.35,1.59,6.54,3.59,9.57,6c3.03,2.42,5.71,5.32,8.06,8.71
			c2.34,3.39,4.2,7.28,5.57,11.68C154.33,726.35,155.02,731.33,155.02,736.88z"/>
		<path d="M405.57,655.53h-61.98v127h-28.13v-127h-62.09v-28.13h152.2V655.53z"/>
		<path d="M661.65,782.53h-28.13v-38.08h-98.87v38.08h-28.13v-77.56c0-11.32,1.95-21.74,5.84-31.26c3.89-9.52,9.3-17.7,16.23-24.56
			c6.92-6.85,15.11-12.19,24.56-16.01c9.45-3.82,19.76-5.73,30.94-5.73h63.39c1.95,0,3.79,0.36,5.52,1.08
			c1.73,0.72,3.25,1.73,4.54,3.03c1.3,1.3,2.31,2.81,3.03,4.54c0.72,1.73,1.08,3.57,1.08,5.52V782.53z M534.65,716.33h98.87v-60.8
			h-49.44c-0.87,0-2.69,0.13-5.46,0.38c-2.78,0.25-5.99,0.88-9.63,1.89c-3.64,1.01-7.48,2.56-11.52,4.65
			c-4.04,2.09-7.75,4.98-11.14,8.65c-3.39,3.68-6.18,8.28-8.38,13.79c-2.2,5.52-3.3,12.21-3.3,20.07V716.33z"/>
		<path d="M937.95,679.55c0,6.42-0.8,12.15-2.38,17.2c-1.59,5.05-3.73,9.5-6.44,13.36c-2.7,3.86-5.83,7.16-9.36,9.9
			c-3.53,2.74-7.23,4.99-11.09,6.76c-3.86,1.77-7.75,3.05-11.68,3.84c-3.93,0.79-7.63,1.19-11.09,1.19l58.74,50.73h-43.49
			l-58.63-50.73h-20.23v-28.13h63.61c3.53-0.29,6.76-1.03,9.68-2.22s5.44-2.79,7.57-4.81c2.13-2.02,3.77-4.45,4.92-7.3
			c1.15-2.85,1.73-6.11,1.73-9.79v-17.74c0-1.59-0.2-2.79-0.59-3.62c-0.4-0.83-0.9-1.44-1.51-1.84c-0.61-0.4-1.26-0.63-1.95-0.7
			c-0.69-0.07-1.32-0.11-1.89-0.11h-92.82v127h-28.13V641.58c0-1.95,0.36-3.79,1.08-5.52c0.72-1.73,1.71-3.25,2.97-4.54
			c1.26-1.3,2.76-2.31,4.49-3.03c1.73-0.72,3.6-1.08,5.63-1.08h106.77c6.27,0,11.57,1.14,15.9,3.41c4.33,2.27,7.84,5.12,10.55,8.55
			c2.7,3.43,4.65,7.12,5.84,11.09c1.19,3.97,1.78,7.68,1.78,11.14V679.55z"/>
		<path d="M1217.61,719.79c0,9.45-1.62,18.14-4.87,26.07c-3.25,7.93-7.75,14.78-13.52,20.55c-5.77,5.77-12.6,10.26-20.5,13.47
			c-7.9,3.21-16.5,4.81-25.8,4.81h-38.08c-9.3,0-17.92-1.61-25.85-4.81c-7.93-3.21-14.78-7.7-20.55-13.47
			c-5.77-5.77-10.3-12.62-13.58-20.55c-3.28-7.93-4.92-16.62-4.92-26.07v-29.64c0-9.37,1.64-18.05,4.92-26.02
			c3.28-7.97,7.8-14.82,13.58-20.55c5.77-5.73,12.62-10.22,20.55-13.47c7.93-3.25,16.55-4.87,25.85-4.87h38.08
			c9.3,0,17.9,1.62,25.8,4.87c7.9,3.25,14.73,7.73,20.5,13.47c5.77,5.73,10.28,12.58,13.52,20.55c3.25,7.97,4.87,16.64,4.87,26.02
			V719.79z M1189.48,690.15c0-5.55-0.88-10.58-2.65-15.09c-1.77-4.51-4.26-8.36-7.46-11.57c-3.21-3.21-7.07-5.7-11.57-7.46
			c-4.51-1.77-9.47-2.65-14.87-2.65h-38.08c-5.48,0-10.48,0.88-14.98,2.65c-4.51,1.77-8.38,4.26-11.63,7.46
			c-3.25,3.21-5.75,7.07-7.52,11.57c-1.77,4.51-2.65,9.54-2.65,15.09v29.64c0,5.55,0.88,10.58,2.65,15.09
			c1.77,4.51,4.27,8.37,7.52,11.57c3.25,3.21,7.12,5.7,11.63,7.46c4.51,1.77,9.5,2.65,14.98,2.65h37.86
			c5.48,0,10.47-0.88,14.98-2.65c4.51-1.77,8.38-4.25,11.63-7.46c3.25-3.21,5.75-7.07,7.52-11.57c1.77-4.51,2.65-9.54,2.65-15.09
			V690.15z"/>
		<path d="M1362.37,782.53h-28.13V627.41h28.13V782.53z"/>
		<path d="M1638.68,717.63c0,9.45-1.64,18.14-4.92,26.07c-3.28,7.93-7.81,14.77-13.58,20.5c-5.77,5.73-12.62,10.22-20.55,13.47
			c-7.93,3.25-16.55,4.87-25.85,4.87h-75.94c-2.02,0-3.89-0.36-5.63-1.08c-1.73-0.72-3.23-1.71-4.49-2.97
			c-1.26-1.26-2.26-2.76-2.97-4.49c-0.72-1.73-1.08-3.6-1.08-5.63V641.58c0-1.95,0.36-3.79,1.08-5.52c0.72-1.73,1.71-3.25,2.97-4.54
			c1.26-1.3,2.76-2.31,4.49-3.03c1.73-0.72,3.6-1.08,5.63-1.08h75.94c9.3,0,17.92,1.62,25.85,4.87c7.93,3.25,14.78,7.73,20.55,13.47
			c5.77,5.73,10.29,12.58,13.58,20.55c3.28,7.97,4.92,16.64,4.92,26.02V717.63z M1610.55,692.31c0-5.48-0.88-10.49-2.65-15.04
			c-1.77-4.54-4.27-8.42-7.52-11.63c-3.25-3.21-7.12-5.7-11.63-7.46c-4.51-1.77-9.5-2.65-14.98-2.65h-61.98v98.87h61.98
			c5.48,0,10.47-0.88,14.98-2.65c4.51-1.77,8.38-4.25,11.63-7.46c3.25-3.21,5.75-7.07,7.52-11.57c1.77-4.51,2.65-9.54,2.65-15.09
			V692.31z"/>
	</g>
	<g>
		<path d="M1108.44,160.8c-3.01-1-74.49-24.44-188.27-34.35c-1.27-2.31-2.54-4.57-3.79-6.78C872.01,41.44,830.23,4.94,828.48,3.43
			c-2.75-2.38-6.15-3.5-9.52-3.43c-3.39-0.08-6.82,1.06-9.58,3.47C807.63,5,766.03,41.7,722.03,120.13
			c-18.13,32.33-33.1,65.4-45.43,98.31c-32.19-18.33-61.76-32.49-88.64-42.43c20.92-4.79,47.98-10.15,80-14.69
			c7.75-1.1,13.13-8.27,12.03-16.02c-1.1-7.74-8.23-13.12-16.01-12.03c-82.2,11.67-131.74,28.22-133.8,28.92
			c-6.12,2.06-10.07,8.01-9.6,14.45c0.47,6.44,5.24,11.74,11.59,12.9c39.86,7.25,86.62,28.25,134.8,56.12
			c-29.97,89.91-41.24,176.83-44.9,242.44c-0.32,5.81,2.94,11.23,8.23,13.66c1.9,0.87,3.91,1.29,5.91,1.29
			c3.59,0,7.12-1.36,9.82-3.95c0.58-0.56,58.93-56.5,137.78-120.48c6.07-4.93,7-13.85,2.07-19.93c-4.93-6.07-13.85-7-19.92-2.07
			c-47.75,38.75-88.13,74.64-112.98,97.34c6.82-74.72,21.25-138.97,39.04-193.3c147.8,91.48,300.07,235.6,302.18,237.61
			c2.69,2.56,6.2,3.9,9.77,3.9c2.02,0,4.05-0.43,5.96-1.32c5.28-2.45,8.52-7.89,8.17-13.7c-8.91-147.24-46.47-257.09-82.4-330.76
			c47.62,4.96,86.92,12.24,115.07,18.55c-16.93,6.36-34.93,14.41-53.91,24.1c-6.97,3.56-9.73,12.09-6.18,19.05
			c2.51,4.91,7.48,7.73,12.63,7.73c2.17,0,4.37-0.5,6.43-1.55c36.9-18.84,69.48-30.99,96.83-36.1c6.35-1.19,11.09-6.52,11.53-12.96
			C1118.54,168.77,1114.56,162.84,1108.44,160.8z M987.03,453.16c-30.02-27.14-82.62-73.29-143.63-120.64
			c-51.43-39.91-98.76-73.06-141.82-99.32c15.19-41.09,32.1-75.78,48.47-104.35c28.53-49.77,55.46-80.96,68.95-95.12
			C851.66,67.66,962.71,200.11,987.03,453.16z"/>
		<path d="M919.87,140.65L919.87,140.65z"/>
	</g>
</g>
</svg>
